<?xml version="1.0" encoding="UTF-8"?>
<svg viewBox="0 0 400 800" xmlns="http://www.w3.org/2000/svg">
    <g id="skeleton" fill="none" stroke="black" stroke-width="1">
        <!-- Cranium -->
        <path id="cranium" 
              d="M175 60 C175 40, 225 40, 225 60 C225 85, 200 110, 200 110 C200 110, 175 85, 175 60Z"
              class="bone"
              data-bone-name="Cranium"
              data-bone-type="cranial"/>

        <!-- Mandible -->
        <path id="mandible"
              d="M180 95 C180 120, 220 120, 220 95"
              class="bone"
              data-bone-name="Mandible"
              data-bone-type="cranial"/>

        <!-- Cervical Vertebrae -->
        <g id="cervical_vertebrae" class="bone-group" data-bone-type="vertebrae">
            <path id="c1" d="M190 120 h20 v10 h-20 Z" class="bone" data-bone-name="C1"/>
            <path id="c2" d="M190 130 h20 v10 h-20 Z" class="bone" data-bone-name="C2"/>
            <path id="c3" d="M190 140 h20 v10 h-20 Z" class="bone" data-bone-name="C3"/>
            <path id="c4" d="M190 150 h20 v10 h-20 Z" class="bone" data-bone-name="C4"/>
            <path id="c5" d="M190 160 h20 v10 h-20 Z" class="bone" data-bone-name="C5"/>
            <path id="c6" d="M190 170 h20 v10 h-20 Z" class="bone" data-bone-name="C6"/>
            <path id="c7" d="M190 180 h20 v10 h-20 Z" class="bone" data-bone-name="C7"/>
        </g>

        <!-- Clavicles -->
        <path id="left_clavicle" 
              d="M200 150 C180 150, 160 160, 140 155"
              class="bone"
              data-bone-name="Left Clavicle"
              data-bone-type="appendicular"/>
        <path id="right_clavicle"
              d="M200 150 C220 150, 240 160, 260 155"
              class="bone"
              data-bone-name="Right Clavicle"
              data-bone-type="appendicular"/>

        <!-- Scapulae (shown from anterior view) -->
        <path id="left_scapula"
              d="M140 170 C120 200, 120 240, 140 270"
              class="bone"
              data-bone-name="Left Scapula"
              data-bone-type="appendicular"/>
        <path id="right_scapula"
              d="M260 170 C280 200, 280 240, 260 270"
              class="bone"
              data-bone-name="Right Scapula"
              data-bone-type="appendicular"/>

        <!-- Sternum -->
        <path id="sternum"
              d="M190 150 h20 v100 h-20 Z"
              class="bone"
              data-bone-name="Sternum"
              data-bone-type="axial"/>

        <!-- Ribs -->
        <g id="ribs" class="bone-group" data-bone-type="axial">
            <!-- Left Ribs -->
            <path id="left_rib1" d="M190 160 C160 160, 140 170, 130 180" class="bone" data-bone-name="Left Rib 1"/>
            <path id="left_rib2" d="M190 170 C160 170, 135 180, 125 190" class="bone" data-bone-name="Left Rib 2"/>
            <path id="left_rib3" d="M190 180 C160 180, 130 190, 120 200" class="bone" data-bone-name="Left Rib 3"/>
            <path id="left_rib4" d="M190 190 C160 190, 125 200, 115 210" class="bone" data-bone-name="Left Rib 4"/>
            <path id="left_rib5" d="M190 200 C160 200, 120 210, 110 220" class="bone" data-bone-name="Left Rib 5"/>
            <path id="left_rib6" d="M190 210 C160 210, 115 220, 105 230" class="bone" data-bone-name="Left Rib 6"/>
            <path id="left_rib7" d="M190 220 C160 220, 110 230, 100 240" class="bone" data-bone-name="Left Rib 7"/>
            <path id="left_rib8" d="M190 230 C160 230, 115 240, 105 250" class="bone" data-bone-name="Left Rib 8"/>
            <path id="left_rib9" d="M190 240 C160 240, 120 250, 110 260" class="bone" data-bone-name="Left Rib 9"/>
            <path id="left_rib10" d="M190 250 C160 250, 125 260, 115 270" class="bone" data-bone-name="Left Rib 10"/>
            <path id="left_rib11" d="M190 260 C160 260, 130 270, 120 280" class="bone" data-bone-name="Left Rib 11"/>
            <path id="left_rib12" d="M190 270 C160 270, 135 280, 125 290" class="bone" data-bone-name="Left Rib 12"/>

            <!-- Right Ribs -->
            <path id="right_rib1" d="M210 160 C240 160, 260 170, 270 180" class="bone" data-bone-name="Right Rib 1"/>
            <path id="right_rib2" d="M210 170 C240 170, 265 180, 275 190" class="bone" data-bone-name="Right Rib 2"/>
            <path id="right_rib3" d="M210 180 C240 180, 270 190, 280 200" class="bone" data-bone-name="Right Rib 3"/>
            <path id="right_rib4" d="M210 190 C240 190, 275 200, 285 210" class="bone" data-bone-name="Right Rib 4"/>
            <path id="right_rib5" d="M210 200 C240 200, 280 210, 290 220" class="bone" data-bone-name="Right Rib 5"/>
            <path id="right_rib6" d="M210 210 C240 210, 285 220, 295 230" class="bone" data-bone-name="Right Rib 6"/>
            <path id="right_rib7" d="M210 220 C240 220, 290 230, 300 240" class="bone" data-bone-name="Right Rib 7"/>
            <path id="right_rib8" d="M210 230 C240 230, 285 240, 295 250" class="bone" data-bone-name="Right Rib 8"/>
            <path id="right_rib9" d="M210 240 C240 240, 280 250, 290 260" class="bone" data-bone-name="Right Rib 9"/>
            <path id="right_rib10" d="M210 250 C240 250, 275 260, 285 270" class="bone" data-bone-name="Right Rib 10"/>
            <path id="right_rib11" d="M210 260 C240 260, 270 270, 280 280" class="bone" data-bone-name="Right Rib 11"/>
            <path id="right_rib12" d="M210 270 C240 270, 265 280, 275 290" class="bone" data-bone-name="Right Rib 12"/>
        </g>

        <!-- Humeri -->
        <g id="humeri" class="bone-group" data-bone-type="appendicular">
            <path id="left_humerus" 
                  d="M130 180 v150"
                  class="bone"
                  data-bone-name="Left Humerus"/>
            <path id="right_humerus"
                  d="M270 180 v150"
                  class="bone"
                  data-bone-name="Right Humerus"/>
        </g>

        <!-- Radius and Ulna -->
        <g id="forearms" class="bone-group" data-bone-type="appendicular">
            <!-- Left Forearm -->
            <path id="left_radius"
                  d="M120 330 v120"
                  class="bone"
                  data-bone-name="Left Radius"/>
            <path id="left_ulna"
                  d="M140 330 v120"
                  class="bone"
                  data-bone-name="Left Ulna"/>
                  
            <!-- Right Forearm -->
            <path id="right_radius"
                  d="M260 330 v120"
                  class="bone"
                  data-bone-name="Right Radius"/>
            <path id="right_ulna"
                  d="M280 330 v120"
                  class="bone"
                  data-bone-name="Right Ulna"/>
        </g>

        <!-- Hands -->
        <g id="hands" class="bone-group" data-bone-type="appendicular">
            <!-- Left Hand -->
            <path id="left_carpals"
                  d="M110 450 h50 v20 h-50 Z"
                  class="bone"
                  data-bone-name="Left Carpals"/>
            <!-- Left Metacarpals and Phalanges -->
            <path id="left_metacarpals"
                  d="M110 470 h50 v30 h-50 Z"
                  class="bone"
                  data-bone-name="Left Metacarpals"/>
            
            <!-- Right Hand -->
            <path id="right_carpals"
                  d="M240 450 h50 v20 h-50 Z"
                  class="bone"
                  data-bone-name="Right Carpals"/>
            <!-- Right Metacarpals and Phalanges -->
            <path id="right_metacarpals"
                  d="M240 470 h50 v30 h-50 Z"
                  class="bone"
                  data-bone-name="Right Metacarpals"/>
        </g>

        <!-- Os Coxae -->
        <g id="pelvis" class="bone-group" data-bone-type="axial">
            <path id="left_os_coxa"
                  d="M170 400 C140 450, 140 500, 170 550"
                  class="bone"
                  data-bone-name="Left Os Coxa"/>
            <path id="right_os_coxa"
                  d="M230 400 C260 450, 260 500, 230 550"
                  class="bone"
                  data-bone-name="Right Os Coxa"/>
        </g>

        <!-- Femora -->
        <g id="femora" class="bone-group" data-bone-type="appendicular">
            <path id="left_femur"
                  d="M170 550 v200"
                  class="bone"
                  data-bone-name="Left Femur"/>
            <path id="right_femur"
                  d="M230 550 v200"
                  class="bone"
                  data-bone-name="Right Femur"/>
        </g>

        <!-- Patellae -->
        <g id="patellae" class="bone-group" data-bone-type="appendicular">
            <rect id="left_patella"
                  x="165" y="725" width="20" height="25"
                  class="bone"
                  data-bone-name="Left Patella"/>
            <rect id="right_patella"
                  x="225" y="725" width="20" height="25"
                  class="bone"
                  data-bone-name="Right Patella"/>
        </g>

        <!-- Tibia and Fibula -->
        <g id="lower_legs" class="bone-group" data-bone-type="appendicular">
            <!-- Left Leg -->
            <path id="left_tibia"
                  d="M170 750 v170"
                  class="bone"
                  data-bone-name="Left Tibia"/>
            <path id="left_fibula"
                  d="M150 750 v170"
                  class="bone"
                  data-bone-name="Left Fibula"/>
                  
            <!-- Right Leg -->
            <path id="right_tibia"
                  d="M230 750 v170"
                  class="bone"
                  data-bone-name="Right Tibia"/>
            <path id="right_fibula"
                  d="M250 750 v170"
                  class="bone"
                  data-bone-name="Right Fibula"/>
        </g>

        <!-- Feet -->
        <g id="feet" class="bone-group" data-bone-type="appendicular">
            <!-- Left Foot -->
            <path id="left_tarsals"
                  d="M140 920 h60 v30 h-60 Z"
                  class="bone"
                  data-bone-name="Left Tarsals"/>
            
            <!-- Right Foot -->
            <path id="right_tarsals"
                  d="M200 920 h60 v30 h-60 Z"
                  class="bone"
                  data-bone-name="Right Tarsals"/>
        </g>
    </g>
</svg>
